# xmcd CD database file
#
# Track frame offsets:
#	150
#	13120
#	32547
#	46345
#	59320
#	74552
#	92845
#	104845
#	120065
#	135225
#	156812
#	171592
#	194470
#	214125
#	228972
#
# Disc length: 3243 seconds
#
# Revision: 0
# Processed by: cddbd v1.5.1PL0 Copyright (c) Steve Scherf et al.
# Submitted via: CDex 1.50beta10
#
DISCID=ce0ca90f
DTITLE=Echoes Of Swing - You've Got To Be Modernistic
DYEAR=1900
DGENRE=Jazz
TTITLE0=From A-Flat To C
TTITLE1=Junk Man
TTITLE2=Jubilee
TTITLE3=I'm Putting All My Eggs In One Basket
TTITLE4=Leon's Den
TTITLE5=All My Life
TTITLE6=Afternoon In Africa
TTITLE7=With Plenty Of Money And You
TTITLE8=Just A Riff
TTITLE9=Just A Mood
TTITLE10=Synthetic Love
TTITLE11=Mysterioso
TTITLE12=Limehouse Blues
TTITLE13=What's Your Name
TTITLE14=Concentrating
EXTD=
EXTT0=
EXTT1=
EXTT2=
EXTT3=
EXTT4=
EXTT5=
EXTT6=
EXTT7=
EXTT8=
EXTT9=
EXTT10=
EXTT11=
EXTT12=
EXTT13=
EXTT14=
PLAYORDER=
